<svg xmlns="http://www.w3.org/2000/svg" id="Layer_1" width="64" height="64" data-name="Layer 1" viewBox="0 0 64 64"><rect width="64" height="64" fill="#6268af" rx="15.7" ry="15.7"/><path fill-rule="evenodd" d="M9.6 0h44.8A9.6 9.6 0 0 1 64 9.6v44.8a9.6 9.6 0 0 1-9.6 9.6H9.6A9.6 9.6 0 0 1 0 54.4V9.6A9.6 9.6 0 0 1 9.6 0z"/><path fill="#fff" fill-rule="evenodd" d="M25 12.3h8.3c5.3 0 11.4 5.9 11.4 11.5v1.1a2.4 2.4 0 0 0 2.7 2.3h1.7c2.1 0 2.7 1.2 2.7 2.9v9.5a12.2 12.2 0 0 1-12.1 12.1H23.9c-5.8 0-11.5-5.4-11.5-11.9v-15A12.4 12.4 0 0 1 25 12.3zm0 10.4h7.2a2.3 2.3 0 1 1 0 4.6H25a2.3 2.3 0 1 1 0-4.6zM25 37h14.2a2.3 2.3 0 1 1 0 4.6H25a2.3 2.3 0 1 1 0-4.6z"/></svg>