<svg xmlns="http://www.w3.org/2000/svg" id="Layer_1" width="64" height="64" data-name="Layer 1" viewBox="0 0 64 64"><path d="M60.1 43.4a2.1 2.1 0 0 1-3.6 0A81.6 81.6 0 0 1 46 13a1.9 1.9 0 0 1 1.9-2.2l.9.2c4.9 2.6 23 13.6 11.3 32.4zm-8.9-1.2a5.2 5.2 0 0 1-.1 5 21.7 21.7 0 0 1-18 11v-6.4l.4-.3 4.4-3.9a2.7 2.7 0 0 0-1.9-4.7h-8.7a2.7 2.7 0 0 0-1.8 4.8l4.4 3.9.4.3v6.4A20.1 20.1 0 0 1 12 46.2a5.1 5.1 0 0 1 .1-4.5c6-11.4 8-24.1 8.7-29.9a5.2 5.2 0 0 1 3.5-4.3c6.7-2.2 8.2-2.2 14.8 0a5.2 5.2 0 0 1 3.5 4.2c2.5 17.1 6.6 26.6 8.6 30.5zM18 13A81.6 81.6 0 0 1 7.4 43.4a2.1 2.1 0 0 1-3.6 0c-11.6-18.8 6.5-29.8 11.4-32.3l.9-.2A1.9 1.9 0 0 1 18 13z"/><path d="M35.3 46.8l-2.9 2.6a1.1 1.1 0 0 1-1.4 0l-3-2.6a1.1 1.1 0 0 1 .7-1.9h5.8a1.1 1.1 0 0 1 .8 1.9z"/></svg>