<svg xmlns="http://www.w3.org/2000/svg" width="64" height="52.4" data-name="Layer 1" viewBox="0 0 64 52.4"><path fill="#9fa2a6" d="M60.1 37.6a2.1 2.1 0 0 1-3.6 0A81.6 81.6 0 0 1 46 7.2 1.9 1.9 0 0 1 47.9 5l.9.2c4.9 2.6 23 13.6 11.3 32.4zm-8.9-1.2a5.2 5.2 0 0 1-.1 5 21.7 21.7 0 0 1-18 11V46l.4-.3 4.4-3.9a2.7 2.7 0 0 0-1.9-4.7h-8.7a2.7 2.7 0 0 0-1.8 4.8l4.4 3.9.4.3v6.4A20.1 20.1 0 0 1 12 40.4a5.1 5.1 0 0 1 .1-4.5c6-11.4 8-24.1 8.7-29.9a5.2 5.2 0 0 1 3.5-4.3c6.7-2.2 8.2-2.2 14.8 0a5.2 5.2 0 0 1 3.5 4.2c2.5 17.1 6.6 26.6 8.6 30.5zM18 7.2A81.6 81.6 0 0 1 7.4 37.6a2.1 2.1 0 0 1-3.6 0C-7.8 18.8 10.3 7.8 15.2 5.3l.9-.2A1.9 1.9 0 0 1 18 7.2z"/><path fill="#9fa2a6" d="M35.3 40.9l-2.9 2.6a1.1 1.1 0 0 1-1.4 0l-3-2.6a1.1 1.1 0 0 1 .7-1.9h5.8a1.1 1.1 0 0 1 .8 1.9z"/></svg>