<?xml version="1.0" encoding="utf-8"?>
<!-- Generator: Adobe Illustrator 21.0.2, SVG Export Plug-In . SVG Version: 6.00 Build 0)  -->
<svg version="1.1" id="Layer_1" xmlns="http://www.w3.org/2000/svg" xmlns:xlink="http://www.w3.org/1999/xlink" x="0px" y="0px"
	 viewBox="0 0 64 64" style="enable-background:new 0 0 64 64;" xml:space="preserve">
<style type="text/css">
	.st0{fill-rule:evenodd;clip-rule:evenodd;fill:#6268AF;}
	.st1{fill:#FFFFFF;}
	.st2{fill:#6268AF;}
	.st3{fill-rule:evenodd;clip-rule:evenodd;fill:#FFFFFF;}
	.st4{clip-path:url(#SVGID_2_);}
	.st5{clip-path:url(#SVGID_4_);fill:#9FA2A6;}
	.st6{clip-path:url(#SVGID_6_);}
	.st7{clip-path:url(#SVGID_8_);fill:#3A93C2;}
	.st8{fill:none;stroke:#6268AF;stroke-width:8;stroke-linecap:round;stroke-linejoin:round;stroke-miterlimit:10;}
</style>
<path class="st0" d="M9.6,75.7h44.8c5.3,0,9.6,4.3,9.6,9.6v44.8c0,5.3-4.3,9.6-9.6,9.6H9.6c-5.3,0-9.6-4.3-9.6-9.6V85.3
	C0,80,4.3,75.7,9.6,75.7L9.6,75.7z"/>
<path class="st0" d="M-140.5,75.7h44.8c5.3,0,9.6,4.3,9.6,9.6v44.8c0,5.3-4.3,9.6-9.6,9.6h-44.8c-5.3,0-9.6-4.3-9.6-9.6V85.3
	C-150.1,80-145.8,75.7-140.5,75.7L-140.5,75.7z"/>
<path class="st0" d="M-213.6,75.7h44.8c5.3,0,9.6,4.3,9.6,9.6v44.8c0,5.3-4.3,9.6-9.6,9.6h-44.8c-5.3,0-9.6-4.3-9.6-9.6V85.3
	C-223.2,80-218.9,75.7-213.6,75.7L-213.6,75.7z"/>
<path class="st1" d="M-191.2,88.6c6.2,0,6.9,0,9.4,0.1c2.3,0.1,3.5,0.5,4.3,0.8c1.1,0.4,1.9,0.9,2.7,1.7c0.8,0.8,1.3,1.6,1.7,2.7
	c0.3,0.8,0.7,2.1,0.8,4.3c0.1,2.5,0.1,3.2,0.1,9.4s0,6.9-0.1,9.4c-0.1,2.3-0.5,3.5-0.8,4.3c-0.4,1.1-0.9,1.9-1.7,2.7
	c-0.8,0.8-1.6,1.3-2.7,1.7c-0.8,0.3-2.1,0.7-4.3,0.8c-2.5,0.1-3.2,0.1-9.4,0.1c-6.2,0-6.9,0-9.4-0.1c-2.3-0.1-3.5-0.5-4.3-0.8
	c-1.1-0.4-1.9-0.9-2.7-1.7c-0.8-0.8-1.3-1.6-1.7-2.7c-0.3-0.8-0.7-2.1-0.8-4.3c-0.1-2.5-0.1-3.2-0.1-9.4s0-6.9,0.1-9.4
	c0.1-2.3,0.5-3.5,0.8-4.3c0.4-1.1,0.9-1.9,1.7-2.7c0.8-0.8,1.6-1.3,2.7-1.7c0.8-0.3,2.1-0.7,4.3-0.8
	C-198.2,88.6-197.4,88.6-191.2,88.6 M-191.2,84.4c-6.3,0-7.1,0-9.6,0.1c-2.5,0.1-4.2,0.5-5.6,1.1c-1.5,0.6-2.8,1.4-4.1,2.7
	c-1.3,1.3-2.1,2.6-2.7,4.1c-0.6,1.5-1,3.2-1.1,5.6c-0.1,2.5-0.1,3.3-0.1,9.6c0,6.3,0,7.1,0.1,9.6c0.1,2.5,0.5,4.2,1.1,5.6
	c0.6,1.5,1.4,2.8,2.7,4.1c1.3,1.3,2.6,2.1,4.1,2.7c1.5,0.6,3.2,1,5.6,1.1c2.5,0.1,3.3,0.1,9.6,0.1s7.1,0,9.6-0.1
	c2.5-0.1,4.2-0.5,5.6-1.1c1.5-0.6,2.8-1.4,4.1-2.7c1.3-1.3,2.1-2.6,2.7-4.1c0.6-1.5,1-3.2,1.1-5.6c0.1-2.5,0.1-3.3,0.1-9.6
	c0-6.3,0-7.1-0.1-9.6c-0.1-2.5-0.5-4.2-1.1-5.6c-0.6-1.5-1.4-2.8-2.7-4.1c-1.3-1.3-2.6-2.1-4.1-2.7c-1.5-0.6-3.2-1-5.6-1.1
	C-184.1,84.5-184.9,84.4-191.2,84.4L-191.2,84.4z"/>
<path class="st1" d="M-191.2,95.7c-6.6,0-11.9,5.3-11.9,11.9c0,6.6,5.3,11.9,11.9,11.9c6.6,0,11.9-5.3,11.9-11.9
	C-179.3,101.1-184.6,95.7-191.2,95.7z M-191.2,115.4c-4.3,0-7.7-3.5-7.7-7.7s3.5-7.7,7.7-7.7c4.3,0,7.7,3.5,7.7,7.7
	S-187,115.4-191.2,115.4z"/>
<circle class="st1" cx="-178.8" cy="95.3" r="2.8"/>
<path class="st1" d="M-127.5,128.2c19,0,29.4-15.8,29.4-29.4c0-0.4,0-0.9,0-1.3c2-1.5,3.8-3.3,5.2-5.4c-1.9,0.8-3.8,1.4-5.9,1.6
	c2.1-1.3,3.8-3.3,4.5-5.7c-2,1.2-4.2,2-6.6,2.5c-1.9-2-4.6-3.3-7.6-3.3c-5.7,0-10.3,4.6-10.3,10.3c0,0.8,0.1,1.6,0.3,2.4
	c-8.6-0.4-16.2-4.5-21.3-10.8c-0.9,1.5-1.4,3.3-1.4,5.2c0,3.6,1.8,6.8,4.6,8.6c-1.7-0.1-3.3-0.5-4.7-1.3c0,0,0,0.1,0,0.1
	c0,5,3.6,9.2,8.3,10.1c-0.9,0.2-1.8,0.4-2.7,0.4c-0.7,0-1.3-0.1-1.9-0.2c1.3,4.1,5.1,7.1,9.7,7.2c-3.5,2.8-8,4.4-12.8,4.4
	c-0.8,0-1.7,0-2.5-0.1C-138.7,126.5-133.3,128.2-127.5,128.2"/>
<path class="st1" d="M44.2,139.7v-24.8h8.3l1.2-9.7h-9.6v-6.2c0-2.8,0.8-4.7,4.8-4.7l5.1,0v-8.6c-0.9-0.1-3.9-0.4-7.5-0.4
	c-7.4,0-12.4,4.5-12.4,12.8v7.1h-8.3v9.7h8.3v24.8H44.2z"/>
<path class="st2" d="M-27.2,139.7h-32.6c-8.7,0-15.7-7-15.7-15.7V91.4c0-8.7,7-15.7,15.7-15.7h32.6c8.7,0,15.7,7,15.7,15.7V124
	C-11.5,132.6-18.5,139.7-27.2,139.7z"/>
<path class="st0" d="M-65.9,75.7h44.8c5.3,0,9.6,4.3,9.6,9.6v44.8c0,5.3-4.3,9.6-9.6,9.6h-44.8c-5.3,0-9.6-4.3-9.6-9.6V85.3
	C-75.5,80-71.2,75.7-65.9,75.7L-65.9,75.7z"/>
<path class="st3" d="M-50.5,88h8.3c5.3,0,11.4,5.9,11.4,11.5v1.1c0,1.2,1,2.3,2.7,2.3h1.7c2.1,0,2.7,1.2,2.7,2.9v9.5
	c0,6.6-5.6,12.1-12.1,12.1h-15.8c-5.8,0-11.5-5.4-11.5-11.9v-14.9C-63.1,93.5-57.5,88-50.5,88L-50.5,88z M-50.5,98.3h7.2
	c1.3,0,2.3,1,2.3,2.3c0,1.3-1,2.3-2.3,2.3h-7.2c-1.3,0-2.3-1-2.3-2.3C-52.8,99.4-51.8,98.3-50.5,98.3L-50.5,98.3z M-50.5,112.6h14.2
	c1.3,0,2.3,1,2.3,2.3c0,1.3-1,2.3-2.3,2.3h-14.2c-1.3,0-2.3-1-2.3-2.3C-52.8,113.6-51.8,112.6-50.5,112.6L-50.5,112.6z"/>
<path class="st2" d="M126.2,139.7H93.6c-8.7,0-15.7-7-15.7-15.7V91.4c0-8.7,7-15.7,15.7-15.7h32.6c8.7,0,15.7,7,15.7,15.7V124
	C141.9,132.6,134.8,139.7,126.2,139.7z"/>
<path class="st0" d="M87.5,75.7h44.8c5.3,0,9.6,4.3,9.6,9.6v44.8c0,5.3-4.3,9.6-9.6,9.6H87.5c-5.3,0-9.6-4.3-9.6-9.6V85.3
	C77.9,80,82.2,75.7,87.5,75.7L87.5,75.7z"/>
<path class="st1" d="M123,127.3c-1.5,1.6-5,2.7-8.2,2.8h-0.3c-10.5,0-12.8-7.7-12.8-12.3v-12.6h-4.2c-0.5,0-0.9-0.4-0.9-0.9
	c0,0,0,0,0,0v-5.9c0-0.6,0.4-1.2,1-1.4c5.4-1.9,7.1-6.6,7.4-10.2c0.1-1,0.6-1.4,1.4-1.4h6.2c0.5,0,0.9,0.4,0.9,0.9v10h7.2
	c0.5,0,0.9,0.4,0.9,0.9v7.1c0,0.5-0.4,0.9-0.9,0.9h-7.3v11.6c0,2.9,1.9,3.7,3.1,3.7c1.1,0,2.3-0.4,2.8-0.6c0.4-0.2,0.8-0.3,1.1-0.2
	c0.3,0.1,0.5,0.3,0.6,0.7l1.9,5.6C123.1,126.4,123.3,126.9,123,127.3z"/>
<g>
	<g>
		<defs>
			<rect id="SVGID_1_" x="-223.2" y="5.8" width="64" height="52.4"/>
		</defs>
		<clipPath id="SVGID_2_">
			<use xlink:href="#SVGID_1_"  style="overflow:visible;"/>
		</clipPath>
		<g class="st4">
			<defs>
				<rect id="SVGID_3_" x="-223.2" y="5.8" width="64" height="52.4"/>
			</defs>
			<clipPath id="SVGID_4_">
				<use xlink:href="#SVGID_3_"  style="overflow:visible;"/>
			</clipPath>
			<path class="st5" d="M-163.1,43.4c-0.8,1.3-2.8,1.3-3.6,0c-6.1-10.1-9.4-21.6-10.6-30.3c-0.1-0.6,0.2-1.3,0.6-1.7
				c0.4-0.3,0.8-0.5,1.3-0.5c0.3,0,0.6,0.1,0.9,0.2C-169.5,13.6-151.4,24.6-163.1,43.4"/>
			<path class="st5" d="M-172.1,42.2c0.8,1.6,0.7,3.4-0.1,5c-2.2,3.8-7.5,10.3-18,11v-6.4c0.1-0.1,0.3-0.2,0.4-0.3l4.4-3.9
				c1.9-1.7,0.7-4.8-1.8-4.8h-8.8c-2.5,0-3.7,3.1-1.8,4.8l4.4,3.9c0.1,0.1,0.3,0.2,0.4,0.3v6.4c-11.4-0.4-16.4-7.9-18.2-12
				c-0.7-1.4-0.6-3.1,0.1-4.5c6-11.4,8-24.1,8.7-29.9c0.2-2,1.6-3.7,3.5-4.3c6.7-2.2,8.2-2.2,14.8,0c1.9,0.6,3.2,2.2,3.5,4.2
				C-178.1,28.8-174.1,38.3-172.1,42.2"/>
			<path class="st5" d="M-205.2,13c-1.2,8.7-4.5,20.3-10.6,30.3c-0.8,1.3-2.7,1.3-3.6,0c-11.7-18.8,6.4-29.7,11.3-32.3
				c0.3-0.1,0.6-0.2,0.9-0.2c0.5,0,0.9,0.2,1.3,0.5C-205.4,11.8-205.1,12.4-205.2,13"/>
			<path class="st5" d="M-188,46.8l-2.9,2.6c-0.4,0.4-1,0.4-1.4,0l-2.9-2.6c-0.7-0.7-0.3-1.9,0.7-1.9h5.8
				C-187.7,44.9-187.2,46.1-188,46.8"/>
		</g>
	</g>
</g>
<g>
	<g>
		<defs>
			<rect id="SVGID_5_" x="-150.1" y="3.7" width="64" height="56.6"/>
		</defs>
		<clipPath id="SVGID_6_">
			<use xlink:href="#SVGID_5_"  style="overflow:visible;"/>
		</clipPath>
		<g class="st6">
			<defs>
				<rect id="SVGID_7_" x="-150.1" y="3.7" width="64" height="56.6"/>
			</defs>
			<clipPath id="SVGID_8_">
				<use xlink:href="#SVGID_7_"  style="overflow:visible;"/>
			</clipPath>
			<path class="st7" d="M-100.2,49.9l-12.6-17.4c-2.8-3.9-8.7-3.9-11.5,0l-12.6,17.4c-3.4,4.7,2.3,10.7,7.2,7.4l2.7-1.8
				c5.1-3.5,11.8-3.5,16.9,0l2.7,1.8C-102.5,60.5-96.7,54.6-100.2,49.9"/>
			<path class="st7" d="M-134.1,31.9c0,5.2-3.1,9.3-7,9.3c-3.8,0-7-4.2-7-9.3c0-5.2,3.1-9.3,7-9.3
				C-137.2,22.6-134.1,26.8-134.1,31.9"/>
			<path class="st7" d="M-119.8,15.1c0,5.2-3.1,9.3-7,9.3c-3.8,0-7-4.2-7-9.3s3.1-9.3,7-9.3C-123,5.8-119.8,10-119.8,15.1"/>
			<path class="st7" d="M-102,15.1c0,5.2-3.1,9.3-7,9.3c-3.8,0-7-4.2-7-9.3s3.1-9.3,7-9.3C-105.1,5.8-102,10-102,15.1"/>
			<path class="st7" d="M-88.2,32.2c0,5.2-3.1,9.3-7,9.3s-7-4.2-7-9.3c0-5.2,3.1-9.3,7-9.3S-88.2,27-88.2,32.2"/>
		</g>
	</g>
</g>
<line class="st8" x1="-62.8" y1="12.7" x2="-24.2" y2="51.3"/>
<line class="st8" x1="-24.2" y1="12.7" x2="-62.8" y2="51.3"/>
<line class="st8" x1="53.4" y1="32" x2="10.6" y2="32"/>
<line class="st8" x1="53.4" y1="13.9" x2="10.6" y2="13.9"/>
<line class="st8" x1="53.4" y1="50.1" x2="10.6" y2="50.1"/>
</svg>
